<?xml version="1.0" encoding="utf-8"?>
<svg xmlns="http://www.w3.org/2000/svg" width="62" height="62" class="segno"><path transform="scale(2)" class="qrline" stroke="#1d160f" d="M1 1.5h7m2 0h1m2 0h1m2 0h5m2 0h7m-29 1h1m5 0h1m3 0h4m1 0h1m1 0h1m1 0h2m1 0h1m5 0h1m-29 1h1m1 0h3m1 0h1m1 0h3m1 0h1m1 0h3m2 0h1m2 0h1m1 0h3m1 0h1m-29 1h1m1 0h3m1 0h1m2 0h3m3 0h2m1 0h2m2 0h1m1 0h3m1 0h1m-29 1h1m1 0h3m1 0h1m3 0h1m4 0h2m2 0h1m2 0h1m1 0h3m1 0h1m-29 1h1m5 0h1m2 0h1m5 0h5m2 0h1m5 0h1m-29 1h7m1 0h1m1 0h1m1 0h1m1 0h1m1 0h1m1 0h1m1 0h1m1 0h7m-29 1m8 0h3m1 0h2m1 0h1m1 0h1m2 0h1m8 0m-29 1h3m1 0h5m1 0h2m1 0h5m1 0h4m3 0h1m2 0m-29 1m2 0h1m1 0h1m2 0h1m2 0h2m1 0h2m1 0h1m4 0h2m2 0h1m2 0h1m-29 1h1m1 0h2m1 0h3m1 0h1m3 0h1m2 0h1m1 0h1m2 0h1m4 0h3m-29 1m1 0h1m1 0h1m1 0h1m1 0h2m2 0h1m1 0h1m1 0h3m2 0h1m1 0h2m3 0h1m1 0m-29 1m3 0h1m1 0h2m5 0h3m2 0h1m2 0h4m1 0h1m1 0h2m-29 1h3m2 0h1m2 0h2m1 0h2m3 0h3m1 0h3m2 0h1m2 0h1m-29 1m4 0h1m1 0h1m1 0h1m2 0h3m2 0h1m3 0h2m3 0h1m1 0h2m-29 1m4 0h2m2 0h2m2 0h7m1 0h1m1 0h1m1 0h2m1 0h1m1 0m-29 1h3m1 0h3m4 0h1m2 0h1m1 0h2m1 0h4m2 0h1m1 0h2m-29 1m1 0h5m1 0h1m2 0h2m4 0h2m2 0h1m1 0h1m2 0h2m1 0h1m-29 1h1m2 0h1m2 0h1m1 0h3m2 0h1m2 0h3m2 0h2m4 0h2m-29 1m1 0h2m1 0h1m2 0h1m3 0h1m3 0h3m1 0h1m1 0h1m1 0h3m1 0h1m1 0m-29 1h1m2 0h1m2 0h3m1 0h1m1 0h1m4 0h2m1 0h5m4 0m-29 1m8 0h1m2 0h3m2 0h1m2 0h2m3 0h1m1 0h3m-29 1h7m1 0h2m1 0h2m1 0h1m2 0h1m1 0h2m1 0h1m1 0h2m1 0h2m-29 1h1m5 0h1m1 0h2m2 0h3m1 0h2m2 0h1m3 0h2m1 0h1m1 0m-29 1h1m1 0h3m1 0h1m1 0h1m1 0h2m2 0h4m2 0h5m4 0m-29 1h1m1 0h3m1 0h1m2 0h1m1 0h1m2 0h1m4 0h1m1 0h1m1 0h2m1 0h3m-29 1h1m1 0h3m1 0h1m1 0h1m4 0h1m4 0h2m3 0h3m2 0h1m-29 1h1m5 0h1m1 0h1m2 0h1m4 0h5m1 0h1m1 0h1m2 0h1m1 0m-29 1h7m1 0h1m1 0h1m1 0h1m2 0h3m1 0h4m1 0h1m2 0h2m-29 1"/></svg>