<svg xmlns="http://www.w3.org/2000/svg" viewBox="0 0 160 160" fill="none">
  <rect width="160" height="160" rx="34" fill="#FFFDF5"/>
  <path d="M60 148 Q70 146 80 149 Q90 146 100 148" stroke="#D4C8B0" stroke-width="2" stroke-linecap="round" fill="none"/>

  <!-- Legs -->
  <path d="M72 108 Q70 120 71 130 Q72 140 70 146" stroke="#5A6058" stroke-width="2.5" stroke-linecap="round" fill="none"/>
  <path d="M88 108 Q90 120 89 130 Q88 140 90 146" stroke="#5A6058" stroke-width="2.5" stroke-linecap="round" fill="none"/>
  <path d="M66 146 Q68 144 72 145 Q74 146 74 148" stroke="#3A4038" stroke-width="2.5" stroke-linecap="round" fill="none"/>
  <path d="M86 146 Q88 144 92 145 Q94 146 94 148" stroke="#3A4038" stroke-width="2.5" stroke-linecap="round" fill="none"/>

  <!-- Torso (soft sweater) -->
  <path d="M64 68 Q62 80 63 90 Q64 100 66 108 Q72 112 80 112 Q88 112 94 108 Q96 100 97 90 Q98 80 96 68" stroke="#B0A898" stroke-width="2.5" stroke-linecap="round" fill="none"/>
  <path d="M70 64 Q75 60 80 59 Q85 60 90 64" stroke="#B0A898" stroke-width="2" stroke-linecap="round" fill="none"/>

  <!-- Arms (hugging pillow) -->
  <path d="M64 68 Q56 74 54 82 Q52 90 56 96 Q60 102 66 108" stroke="#B0A898" stroke-width="2.5" stroke-linecap="round" fill="none"/>
  <path d="M96 68 Q104 74 106 82 Q108 90 104 96 Q100 102 94 108" stroke="#B0A898" stroke-width="2.5" stroke-linecap="round" fill="none"/>
  <!-- Pillow -->
  <path d="M62 82 Q60 80 64 78 L96 78 Q100 80 98 82 L96 106 Q80 108 64 106 Z" fill="#E0D8C8" stroke="#C0B8A8" stroke-width="1.5"/>

  <!-- Neck -->
  <path d="M78 58 Q80 56 82 58 L81 64" stroke="#F0C8A8" stroke-width="3" stroke-linecap="round" fill="none"/>

  <!-- Head -->
  <path d="M62 38 Q60 30 64 26 Q68 22 80 22 Q92 22 96 26 Q100 30 98 38 Q100 46 96 50 Q92 54 80 54 Q68 54 64 50 Q60 46 62 38 Z" fill="#FAD8B8" stroke="#2D3748" stroke-width="2.5" stroke-linecap="round"/>

  <!-- Hair -->
  <path d="M60 36 Q58 28 64 24 Q70 20 80 20 Q90 20 96 24 Q102 28 100 36 L98 40 Q80 36 62 40 Z" fill="#7A6048"/>

  <!-- Sad puppy eyes -->
  <path d="M70 40 Q72 38 74 40" stroke="#4A4038" stroke-width="2.5" stroke-linecap="round" fill="none"/>
  <path d="M86 40 Q88 38 90 40" stroke="#4A4038" stroke-width="2.5" stroke-linecap="round" fill="none"/>
  <!-- Tears -->
  <circle cx="74" cy="44" r="1.5" fill="#90AEB8" opacity="0.8"/>
  <circle cx="90" cy="44" r="1.5" fill="#90AEB8" opacity="0.8"/>

  <!-- Pout mouth -->
  <circle cx="80" cy="48" r="2.5" fill="#C89898"/>
</svg>